Coordinates
version=1
nRows=17
nColumns=40
inDegrees=yes

Units are S.I. units (second, meters, Newtons, ...)
Angles are in degrees.

endheader
time	pelvis_tilt	pelvis_list	pelvis_rotation	pelvis_tx	pelvis_ty	pelvis_tz	hip_flexion_r	hip_adduction_r	hip_rotation_r	knee_angle_r	knee_angle_r_beta	ankle_angle_r	subtalar_angle_r	mtp_angle_r	hip_flexion_l	hip_adduction_l	hip_rotation_l	knee_angle_l	knee_angle_l_beta	ankle_angle_l	subtalar_angle_l	mtp_angle_l	lumbar_extension	lumbar_bending	lumbar_rotation	arm_flex_r	arm_add_r	arm_rot_r	elbow_flex_r	pro_sup_r	wrist_flex_r	wrist_dev_r	arm_flex_l	arm_add_l	arm_rot_l	elbow_flex_l	pro_sup_l	wrist_flex_l	wrist_dev_l
     55.46000000	     -2.95682799	     -4.34945250	     -1.27625054	      1.18805221	      0.92767560	      0.45950559	     17.82447610	     -0.18836843	    -11.99121703	     19.84304307	     19.84304307	      7.09676342	      0.28695900	     -4.67994225	      4.84486313	    -10.39149547	     -9.83613113	     32.67747859	     32.67747859	     16.12657800	    -12.61356803	     -3.18435375	     -9.13257669	      5.65999997	      0.92424686	      1.02463792	    -15.01976657	     -7.35993028	     38.22238256	     46.29377271	      0.00000000	      0.00000000	      7.26017006	    -11.54405987	    -14.98562915	     61.50441439	     47.10201175	      0.00000000	      0.00000000
     55.47342857	     -2.83661103	     -4.47001990	     -0.81042284	      1.18808985	      0.92785169	      0.46200858	     17.25276219	      0.02726984	    -12.39309593	     19.80934203	     19.80934203	      7.42785093	      0.19031941	     -5.04830628	      6.62120355	    -10.99904353	     -8.54562540	     36.31726223	     36.31726223	     13.44284369	    -14.99635754	     -6.28240680	     -9.16751648	      5.94628089	      1.35846209	      1.50361499	    -15.56895469	     -6.84903092	     40.98835449	     46.12809448	      0.00000000	      0.00000000	      7.81801977	    -11.37285210	    -13.85461557	     58.44972870	     46.98925687	      0.00000000	      0.00000000
     55.48685714	     -2.51449886	     -4.69449274	     -0.38483250	      1.18801883	      0.92826201	      0.46449605	     16.44527282	      0.36898313	    -12.81553346	     19.73123187	     19.73123187	      7.77918947	      0.20174689	     -5.16553642	      8.40873976	    -11.80699438	     -7.55456027	     40.40703586	     40.40703586	     11.88151105	    -16.09889045	     -6.46613607	     -9.54043258	      6.26413336	      1.55441343	      3.04562309	    -15.87912858	     -6.93974525	     41.78153093	     46.11032966	      0.00000000	      0.00000000	      7.45715740	    -11.09438563	    -13.58507173	     57.88350238	     46.95765264	      0.00000000	      0.00000000
     55.50028571	     -2.54040929	     -4.87284941	      0.13187292	      1.18766681	      0.92812241	      0.46666388	     16.01818248	      0.65383567	    -13.23769149	     19.60380985	     19.60380985	      7.96951148	     -0.00189248	     -5.56205222	     10.82397201	    -12.37035565	     -6.11890501	     44.68337274	     44.68337274	     10.57444502	    -17.17126663	     -5.10110485	     -9.36616463	      6.61736902	      1.64898183	      3.83394793	    -16.42127186	     -6.40150524	     44.24514904	     45.97017878	      0.00000000	      0.00000000	      7.55545083	    -10.99361809	    -12.44458944	     54.99061914	     46.83961015	      0.00000000	      0.00000000
     55.51371429	     -2.26261705	     -5.10190802	      0.58533341	      1.18733749	      0.92835353	      0.46883968	     15.30901293	      0.99776636	    -13.64701570	     19.57292011	     19.57292011	      8.29857581	     -0.08361830	     -5.65850896	     12.78791436	    -13.03204267	     -5.03856369	     48.58152095	     48.58152095	      8.85803016	    -17.86979266	     -4.75985533	     -9.67581112	      6.92900207	      1.84876878	      5.47417652	    -16.80209148	     -6.51273570	     45.12732692	     45.95093160	      0.00000000	      0.00000000	      7.12198082	    -10.68754115	    -12.18699590	     54.31697141	     46.80641611	      0.00000000	      0.00000000
     55.52714286	     -2.23611098	     -5.16382155	      1.05452016	      1.18673766	      0.92829041	      0.47066798	     14.90924820	      1.17027857	    -13.87428384	     19.54611565	     19.54611565	      8.53421062	     -0.45873324	     -5.82243189	     15.24826059	    -13.21060212	     -3.61199904	     52.67717557	     52.67717557	      9.03371121	    -17.95632854	      0.76492972	     -9.58404099	      7.10807645	      2.05606663	      6.25777302	    -17.46978243	     -5.75667514	     47.86382151	     45.79961267	      0.00000000	      0.00000000	      7.38467691	    -10.48840418	    -11.24546072	     50.93546632	     46.69835107	      0.00000000	      0.00000000
     55.54057143	     -2.09964364	     -5.23722603	      1.49767314	      1.18610457	      0.92839981	      0.47244681	     14.41280021	      1.35288736	    -14.12447972	     19.55603297	     19.55603297	      8.84363141	     -0.72635897	     -5.82265471	     17.38874837	    -13.40900928	     -2.46759305	     56.11711290	     56.11711290	      8.55082264	    -18.14658181	      4.20545281	     -9.69857613	      7.24580954	      2.28764979	      7.47643915	    -17.99794728	     -5.53981833	     49.90470415	     45.70917559	      0.00000000	      0.00000000	      7.21281841	    -10.21545157	    -10.67537390	     48.97317615	     46.63314179	      0.00000000	      0.00000000
     55.55400000	     -1.95330913	     -5.27961688	      1.93084771	      1.18542760	      0.92856698	      0.47413234	     13.92247761	      1.50946722	    -14.31127340	     19.58851809	     19.58851809	      9.17248268	     -1.03334125	     -5.76719429	     19.38140490	    -13.54910410	     -1.51634803	     59.02017506	     59.02017506	      8.10701835	    -18.25784242	      7.10118908	     -9.80501508	      7.32210276	      2.44633146	      8.79747559	    -18.48100619	     -5.32110701	     51.82767381	     45.62812899	      0.00000000	      0.00000000	      7.00505607	     -9.92197671	    -10.33592862	     46.90061013	     46.58610500	      0.00000000	      0.00000000
     55.56742857	     -1.82647755	     -5.26688181	      2.36534118	      1.18466892	      0.92881346	      0.47569647	     13.44513578	      1.62118198	    -14.43686096	     19.58431074	     19.58431074	      9.47630285	     -1.43149162	     -5.65919417	     21.23190314	    -13.58172255	     -0.71673043	     61.31250270	     61.31250270	      7.72734278	    -18.38935942	      9.33693952	     -9.90014664	      7.31304324	      2.57944777	     10.13882505	    -18.94836393	     -5.05785386	     53.83788911	     45.54774040	      0.00000000	      0.00000000	      6.75653454	     -9.61114936	    -10.16991894	     44.77913962	     46.55263383	      0.00000000	      0.00000000
     55.58085714	     -1.73059990	     -5.21744661	      2.81402237	      1.18385031	      0.92910252	      0.47719732	     12.97347203	      1.69581038	    -14.58335943	     19.52222322	     19.52222322	      9.75694176	     -1.76138231	     -5.61734501	     22.91779459	    -13.59877490	     -0.14970254	     62.91191125	     62.91191125	      7.15575578	    -18.52905048	      9.98514489	     -9.96303288	      7.22119702	      2.36577538	     11.90218103	    -19.04950902	     -5.12824168	     55.42309622	     45.50305969	      0.00000000	      0.00000000	      5.99751734	     -9.47065674	    -10.05990610	     43.42820471	     46.52292126	      0.00000000	      0.00000000
     55.59428571	     -1.63568629	     -5.11271264	      3.27070746	      1.18296637	      0.92950174	      0.47852642	     12.48623901	      1.72544658	    -14.66060423	     19.41995284	     19.41995284	     10.02782227	     -2.19973666	     -5.51199271	     24.46981856	    -13.50827775	      0.28111338	     63.94086885	     63.94086885	      7.08061271	    -18.63044451	     11.08723713	    -10.05768325	      7.07708444	      2.24043652	     13.42658631	    -19.27947502	     -4.92620141	     57.54366339	     45.42824879	      0.00000000	      0.00000000	      5.49196353	     -9.26879810	    -10.04085439	     41.47684675	     46.50187996	      0.00000000	      0.00000000
     55.60771429	     -1.55847011	     -5.02312688	      3.70957989	      1.18201833	      0.92991514	      0.47980997	     12.00022518	      1.75578257	    -14.85130558	     19.27777739	     19.27777739	     10.26283514	     -2.43397542	     -5.48405757	     25.87279139	    -13.45862061	      0.50989739	     64.32224706	     64.32224706	      7.03059244	    -18.73674701	     11.34797984	    -10.13920649	      6.87656107	      2.44669835	     15.01934977	    -19.63924437	     -5.03948170	     58.78770785	     45.39786365	      0.00000000	      0.00000000	      4.82020279	     -8.96626066	     -9.98665435	     40.55698332	     46.48182490	      0.00000000	      0.00000000
     55.62114286	     -1.53202818	     -4.88143648	      4.21430071	      1.18099985	      0.93036909	      0.48084139	     11.52468539	      1.75675107	    -14.90756044	     19.03998633	     19.03998633	     10.46093784	     -2.94421557	     -5.34461752	     27.24075530	    -13.25145822	      0.70493920	     64.19020995	     64.19020995	      7.79221709	    -18.73698907	     13.37124489	    -10.15032816	      6.73343653	      2.63745082	     15.55435520	    -20.41420793	     -4.32250259	     63.17995537	     45.22871779	      0.00000000	      0.00000000	      5.23080906	     -8.56364647	    -10.39270443	     36.69406376	     46.51267008	      0.00000000	      0.00000000
     55.63457143	     -1.49578313	     -4.74380085	      4.73259215	      1.17996316	      0.93087038	      0.48183262	     10.99047333	      1.75070970	    -15.10625255	     18.72480233	     18.72480233	     10.65047680	     -3.18681571	     -5.29358135	     28.36527626	    -13.10456113	      0.67486218	     63.31968437	     63.31968437	      8.06337973	    -18.81109543	     13.52675746	    -10.20016405	      6.48741765	      2.25195496	     17.32793319	    -20.23318375	     -4.64279867	     65.07687553	     45.18666947	      0.00000000	      0.00000000	      4.32585419	     -8.49088803	    -10.40429542	     35.52200654	     46.49636089	      0.00000000	      0.00000000
     55.64800000	     -1.54550090	     -4.56504828	      5.20553629	      1.17876676	      0.93125724	      0.48264624	     10.55066914	      1.69099723	    -15.25810697	     18.39167043	     18.39167043	     10.83910265	     -3.42442198	     -5.26051820	     29.40102154	    -12.90006574	      0.44467546	     61.87495362	     61.87495362	      8.42903235	    -18.90976734	     13.69763129	    -10.21558715	      6.19550496	      2.19941005	     18.98494569	    -20.39372552	     -4.85850430	     66.74696674	     45.14732519	      0.00000000	      0.00000000	      3.55306915	     -8.32139320	    -10.40463549	     34.58035645	     46.48223399	      0.00000000	      0.00000000
     55.66142857	     -1.50430131	     -4.45911510	      5.78762393	      1.17765593	      0.93175274	      0.48332625	      9.95941525	      1.72846903	    -15.46760145	     17.96785212	     17.96785212	     10.96916366	     -3.74048344	     -5.24347728	     30.18386749	    -12.71297619	      0.24018512	     59.86651411	     59.86651411	      8.88613679	    -18.91681234	     14.04833894	    -10.30643112	      6.04854593	      1.64252167	     20.49354079	    -20.08779587	     -4.86232791	     69.75028859	     45.05652069	      0.00000000	      0.00000000	      2.78049881	     -8.31677585	    -10.46566388	     32.96824339	     46.47584936	      0.00000000	      0.00000000
     55.67485714	     -1.59157878	     -4.37610252	      6.29275780	      1.17632906	      0.93195285	      0.48381803	      9.53028386	      1.77281598	    -15.64571622	     17.53645934	     17.53645934	     10.96953263	     -4.08924911	     -5.63953188	     30.97294142	    -12.49048572	     -0.07579152	     57.45011314	     57.45011314	      9.43292961	    -18.96240664	     14.66990580	    -10.35796547	      5.93408993	      2.43644710	     20.46177529	    -21.28286970	     -5.17700837	     74.95193866	     44.91905496	      0.00000000	      0.00000000	      3.34040159	     -7.80216075	    -10.91355413	     30.07920545	     46.54110699	      0.00000000	      0.00000000
